<svg xmlns="http://www.w3.org/2000/svg" viewBox="0 0 600 680" preserveAspectRatio="xMidYMid slice" role="img" aria-label="Project preview placeholder">
  <defs>
    <linearGradient id="bg" x1="0" y1="0" x2="1" y2="1">
      <stop offset="0%" stop-color="#e8f6f5"/>
      <stop offset="50%" stop-color="#d6efee"/>
      <stop offset="100%" stop-color="#c5e3e1"/>
    </linearGradient>
    <linearGradient id="glow" cx="50%" cy="50%" r="50%">
      <stop offset="0%" stop-color="#7cc1bf" stop-opacity=".4"/>
      <stop offset="100%" stop-color="#7cc1bf" stop-opacity="0"/>
    </linearGradient>
    <linearGradient id="bar" x1="0" y1="0" x2="1" y2="0">
      <stop offset="0%" stop-color="#5aa8a5"/>
      <stop offset="100%" stop-color="#7cc1bf"/>
    </linearGradient>
    <pattern id="grid" width="28" height="28" patternUnits="userSpaceOnUse">
      <path d="M28 0H0V28" fill="none" stroke="#5aa8a5" stroke-width=".6" opacity=".14"/>
    </pattern>
  </defs>

  <rect width="600" height="680" fill="url(#bg)"/>
  <rect width="600" height="680" fill="url(#grid)"/>
  <ellipse cx="120" cy="100" rx="240" ry="200" fill="url(#glow)"/>
  <ellipse cx="520" cy="580" rx="180" ry="150" fill="#7cc1bf" opacity=".18"/>

  <rect x="0" y="0" width="600" height="280" fill="#ffffff" opacity=".22"/>
  <rect x="32" y="36" width="180" height="14" rx="7" fill="#5aa8a5" opacity=".65"/>
  <rect x="32" y="60" width="240" height="10" rx="5" fill="#b8dedc"/>

  <!-- large line chart zone -->
  <rect x="0" y="200" width="600" height="176" fill="#ffffff" opacity=".18"/>
  <path d="M0 320 C 60 280, 100 300, 160 250 S 260 220, 320 240 400 180, 460 200 520 160, 600 180 L600 96 L0 96 Z"
        fill="#7cc1bf" opacity=".08"/>
  <path d="M0 300 C 80 260, 140 280, 200 230 S 300 200, 380 220 460 170, 540 190 600 150"
        fill="none" stroke="url(#bar)" stroke-width="5" stroke-linecap="round"/>
  <path d="M0 340 C 100 310, 180 330, 260 290 S 400 270, 480 290 560 250, 600 260"
        fill="none" stroke="#5aa8a5" stroke-width="2.5" stroke-linecap="round" opacity=".45" stroke-dasharray="8 10"/>

  <!-- metric cards full width -->
  <rect x="0" y="376" width="194" height="140" fill="#ffffff" opacity=".65"/>
  <rect x="24" y="404" width="80" height="8" rx="4" fill="#b8dedc"/>
  <rect x="24" y="424" width="120" height="24" rx="6" fill="url(#bar)" opacity=".75"/>
  <rect x="24" y="460" width="64" height="8" rx="4" fill="#d6efee"/>

  <rect x="206" y="376" width="194" height="140" fill="#ffffff" opacity=".52"/>
  <rect x="230" y="404" width="80" height="8" rx="4" fill="#b8dedc"/>
  <rect x="230" y="424" width="100" height="24" rx="6" fill="#7cc1bf" opacity=".5"/>
  <rect x="230" y="460" width="64" height="8" rx="4" fill="#d6efee"/>

  <rect x="412" y="376" width="188" height="140" fill="#ffffff" opacity=".4"/>
  <rect x="436" y="404" width="80" height="8" rx="4" fill="#b8dedc"/>
  <rect x="436" y="424" width="112" height="24" rx="6" fill="#5aa8a5" opacity=".35"/>
  <rect x="436" y="460" width="64" height="8" rx="4" fill="#d6efee"/>

  <!-- bottom data table -->
  <rect x="0" y="516" width="600" height="164" fill="#ffffff" opacity=".45"/>
  <rect x="32" y="544" width="120" height="10" rx="5" fill="#5aa8a5" opacity=".45"/>
  <rect x="32" y="572" width="536" height="8" rx="4" fill="#c5e3e1"/>
  <rect x="32" y="592" width="500" height="8" rx="4" fill="#d6efee"/>
  <rect x="32" y="612" width="520" height="8" rx="4" fill="#d6efee"/>
  <rect x="32" y="632" width="480" height="8" rx="4" fill="#d6efee"/>
  <rect x="32" y="652" width="440" height="8" rx="4" fill="#e8f6f5"/>

  <circle cx="560" cy="40" r="5" fill="#5aa8a5" opacity=".55"/>
  <circle cx="24" cy="660" r="4" fill="#7cc1bf" opacity=".6"/>
</svg>
